:SAMPLES-PER-SECOND 30
:FRAME-RANGE 1-1700
:FULLY-SPECIFIED
:DEGREES
1329
root  -0.219449 37.2609 -83.6151 170.937 -3.57705 -176.295
RightUpLeg  -11.2404 -27.0636 13.4108
RightLeg  34.9976 -12.03 -9.16645
RightFoot  -17.6716 -0.540076 -7.59572
RightToes  -1.16417e-010 0 -3.6325e-017
Spine  16.1821 1.09046 -1.4144
Spine1  3.16522 -3.74203 3.12966
HEad  -3.19677 -4.0746 -1.58625
LeftShoulder1  3.01088 -4.85956 -29.9787
LeftArm  67.3258 -38.8974 -83.2083
LeftForeArm  -2.92099 -12.1683 -16.1294
LeftHand  0.142118 2.2615 -5.8673
RightShoulder  14.2207 25.1414 43.0834
RightArm  23.7383 13.325 19.7451
RightForeArm  29.5832 31.5189 5.24884
RightHand  1.34156 5.18507 14.3145
LeftUpLeg  -112.839 26.9363 -89.3088
LeftLeg  125.404 4.3284 -6.10531
LeftFoot  16.4317 3.28953 -13.6659
LeftToes  1.03528e-008 1.55373e-010 -2.26046e-010
1330
root  0.68376 38.4916 -84.3145 171.951 -10.8866 -178.148
RightUpLeg  -8.90709 -28.1705 11.426
RightLeg  28.9677 -14.0782 -8.52205
RightFoot  -11.6397 -0.0896387 -4.22822
RightToes  -1.16417e-010 0 -3.6325e-017
Spine  15.7374 1.22176 -3.00595
Spine1  1.46487 -3.07824 0.689436
HEad  0.288918 -7.2988 -0.0514108
LeftShoulder1  3.00034 -4.78391 -30.1828
LeftArm  71.3057 -37.1993 -81.833
LeftForeArm  -7.0832 -13.6234 -15.3494
LeftHand  0.162687 2.08017 -6.23515
RightShoulder  13.6546 24.2622 42.6736
RightArm  24.0888 11.2584 21.1388
RightForeArm  31.8127 32.962 5.47309
RightHand  1.32553 5.12691 14.223
LeftUpLeg  -112.408 24.9869 -91.1802
LeftLeg  125.18 4.91844 -6.91882
LeftFoot  17.3322 5.13934 -20.3491
LeftToes  1.03528e-008 1.55373e-010 -2.26046e-010
1331
root  1.51646 39.6608 -85.1569 172.225 -18.5925 -179.23
RightUpLeg  -6.21475 -25.696 9.29876
RightLeg  24.5932 -13.143 -6.70384
RightFoot  -3.98039 0.0719205 -1.53719
RightToes  -1.16417e-010 0 -3.6325e-017
Spine  15.3093 1.15872 -4.65653
Spine1  0.569594 -3.1858 -0.00423525
HEad  4.44363 -9.92443 0.00715289
LeftShoulder1  2.99411 -4.7748 -30.1467
LeftArm  73.8226 -36.064 -81.362
LeftForeArm  -8.01478 -14.4568 -14.7609
LeftHand  0.149768 2.29757 -6.23939
RightShoulder  13.02 22.9403 42.7621
RightArm  27.1414 11.1481 21.8272
RightForeArm  31.478 33.3455 5.58636
RightHand  1.30262 4.69134 14.603
LeftUpLeg  -110.923 24.3123 -90.6568
LeftLeg  125.757 6.84016 -9.20096
LeftFoot  17.4412 6.62684 -25.8663
LeftToes  1.03528e-008 1.55373e-010 -2.26046e-010
1332
root  2.22126 40.5557 -85.9678 171.097 -26.2931 -178.849
RightUpLeg  -3.52246 -15.1656 8.26098
RightLeg  22.4116 -9.4636 -4.47892
RightFoot  3.52873 -0.129931 1.18015
RightToes  -1.16417e-010 0 -3.6325e-017
Spine  16.0764 1.00149 -5.66324
Spine1  -0.076564 -3.64436 1.28879
HEad  7.5563 -11.1726 -0.0647705
LeftShoulder1  2.9987 -4.83639 -29.9319
LeftArm  71.3374 -35.5463 -81.8294
LeftForeArm  -4.48697 -13.7174 -15.1398
LeftHand  0.129575 2.45113 -5.79501
RightShoulder  12.7921 22.5589 42.628
RightArm  28.4915 10.6461 22.4555
RightForeArm  30.9311 32.6656 5.45011
RightHand  1.26063 4.45597 14.4796
LeftUpLeg  -108.496 23.7455 -87.7192
LeftLeg  126.505 7.7235 -10.0376
LeftFoot  16.3128 7.21787 -29.1769
LeftToes  1.03528e-008 1.55373e-010 -2.26046e-010
1333
root  2.84087 41.1028 -86.7142 169.747 -33.631 -177.987
RightUpLeg  -2.32342 -0.351889 8.34124
RightLeg  22.4233 -4.75846 -2.37293
RightFoot  8.47246 -0.314077 2.13137
RightToes  -1.16417e-010 0 -3.6325e-017
Spine  16.8256 1.00301 -6.28524
Spine1  -0.388683 -3.98793 3.00714
HEad  8.97575 -10.9307 -0.0472499
LeftShoulder1  2.94599 -4.83248 -29.3052
LeftArm  69.0471 -35.8133 -83.2717
LeftForeArm  -1.5062 -12.8939 -15.5748
LeftHand  0.121311 2.61012 -5.82307
RightShoulder  12.7676 22.31 42.9856
RightArm  28.7368 10.335 22.3166
RightForeArm  30.0153 31.5064 5.22181
RightHand  1.3304 4.94472 14.5375
LeftUpLeg  -106.819 22.4691 -85.2624
LeftLeg  127.14 5.98165 -7.74774
LeftFoot  16.3668 7.23209 -29.1759
LeftToes  1.03528e-008 1.55373e-010 -2.26046e-010
1334
root  3.38791 41.2016 -87.448 168.518 -40.8278 -177.047
RightUpLeg  -2.40468 12.0301 8.82502
RightLeg  25.3503 -4.01118 -2.29348
RightFoot  8.77869 -0.273484 1.88155
RightToes  -1.16417e-010 0 -3.6325e-017
Spine  17.3915 0.921418 -6.33985
Spine1  -0.62065 -4.31338 4.27732
HEad  8.47949 -8.25824 -0.64192
LeftShoulder1  2.88955 -4.76865 -28.8866
LeftArm  68.4691 -36.1789 -84.3588
LeftForeArm  -1.30283 -12.5784 -15.7784
LeftHand  0.11239 2.3954 -5.3014
RightShoulder  12.7302 22.1697 43.1047
RightArm  28.0524 10.4018 21.8842
RightForeArm  29.3124 30.8472 5.10469
RightHand  1.32025 5.21041 14.0496
LeftUpLeg  -105.459 20.9109 -83.6673
LeftLeg  126.927 4.26273 -5.7148
LeftFoot  17.16 7.11903 -27.9612
LeftToes  1.03528e-008 1.55373e-010 -2.26046e-010
1335
root  3.90299 40.9446 -88.1386 167.294 -47.9249 -175.859
RightUpLeg  -2.64857 18.363 8.87884
RightLeg  28.7044 -6.18931 -3.89004
RightFoot  6.43525 0.112946 -0.439742
RightToes  -1.16417e-010 0 -3.6325e-017
Spine  17.8233 0.661399 -6.2894
Spine1  -0.859763 -4.82905 5.55184
HEad  7.14446 -3.55669 -2.00409
LeftShoulder1  2.90289 -4.77271 -29.0339
LeftArm  68.5537 -36.4598 -84.4581
LeftForeArm  -3.10872 -12.5378 -15.8984
LeftHand  0.117099 2.66472 -5.92466
RightShoulder  12.6413 22.2944 42.5587
RightArm  27.5058 11.3069 21.6507
RightForeArm  28.7262 30.5148 5.05909
RightHand  1.3432 5.39526 14.0418
LeftUpLeg  -104.451 19.309 -82.7832
LeftLeg  125.946 3.15918 -4.50947
LeftFoot  17.423 6.83247 -26.6477
LeftToes  1.03528e-008 1.55373e-010 -2.26046e-010
1336
root  4.39268 40.3301 -88.7754 165.609 -54.5102 -174.295
RightUpLeg  -1.81995 20.681 8.28631
RightLeg  29.6523 -4.97598 -3.29174
RightFoot  0.573666 -0.416438 4.02556
RightToes  -1.16417e-010 0 -3.6325e-017
Spine  18.4489 0.307931 -5.64294
Spine1  -1.27789 -5.24572 6.08666
HEad  5.24747 3.26234 -4.25285
LeftShoulder1  2.91392 -4.79468 -29.0749
LeftArm  64.0852 -37.313 -84.2942
LeftForeArm  -0.132503 -11.1402 -16.6111
LeftHand  0.113459 2.64998 -5.75398
RightShoulder  12.7052 22.775 41.9369
RightArm  27.001 12.3887 21.4894
RightForeArm  28.9662 30.8327 5.12044
RightHand  1.31814 5.54211 13.5838
LeftUpLeg  -104.49 18.647 -82.4142
LeftLeg  124.581 3.53573 -5.22838
LeftFoot  18.083 6.83797 -26.0797
LeftToes  1.03528e-008 1.55373e-010 -2.26046e-010
1337
root  4.88898 39.2836 -89.4397 164.412 -60.2477 -173.184
RightUpLeg  -1.18744 19.8227 7.26693
RightLeg  30.3831 -0.250035 -0.395642
RightFoot  -9.27741 -0.258675 10.8189
RightToes  -1.16417e-010 0 -3.6325e-017
Spine  18.4135 0.414139 -5.51662
Spine1  -1.41094 -5.24447 6.4724
HEad  2.79099 11.6309 -7.14691
LeftShoulder1  2.88416 -4.79677 -28.6992
LeftArm  58.962 -38.3511 -84.2091
LeftForeArm  2.84115 -9.54306 -17.3045
LeftHand  0.112586 2.60792 -5.69294
RightShoulder  12.967 23.5548 41.5178
RightArm  26.7821 13.5625 21.1233
RightForeArm  29.8477 31.5545 5.24261
RightHand  1.31782 5.48851 13.6503
LeftUpLeg  -106.022 18.3001 -83.1338
LeftLeg  123.403 4.32157 -6.53965
LeftFoot  18.5973 7.10705 -26.5993
LeftToes  1.03528e-008 1.55373e-010 -2.26046e-010
1338
root  5.39732 38.097 -90.1553 161.362 -64.9159 -170.043
RightUpLeg  -2.12652 13.7273 8.45688
RightLeg  33.7295 -0.221405 -0.408658
RightFoot  -18.0222 0.207154 5.63935
RightToes  -1.16417e-010 0 -3.6325e-017
Spine  18.6976 0.902163 -4.81488
Spine1  -2.06865 -4.77686 7.3024
HEad  -0.772929 20.8589 -10.6483
LeftShoulder1  2.81289 -4.70103 -28.2238
LeftArm  56.3156 -38.7699 -83.7067
LeftForeArm  3.30491 -8.74791 -17.6442
LeftHand  0.1159 2.54129 -5.85231
RightShoulder  13.536 24.712 41.5348
RightArm  27.3261 14.522 20.484
RightForeArm  30.4904 32.3768 5.40458
RightHand  1.29976 5.27321 13.7442
LeftUpLeg  -108.894 18.5827 -83.2187
LeftLeg  122.881 5.19565 -7.89133
LeftFoot  18.6093 7.11883 -26.6307
LeftToes  1.03528e-008 1.55373e-010 -2.26046e-010
1339
root  5.9445 36.9959 -90.8359 154.416 -69.4776 -162.72
RightUpLeg  -5.20909 7.67516 11.1996
RightLeg  39.4839 -2.5519 -2.53212
RightFoot  -23.1264 -0.0183029 1.34061
RightToes  -1.16417e-010 0 -3.6325e-017
Spine  18.4735 0.963016 -3.40448
Spine1  -1.07716 -4.65375 8.3524
HEad  -7.61477 30.4626 -15.829
LeftShoulder1  2.75044 -4.55953 -28.0455
LeftArm  56.6952 -39.0576 -82.7296
LeftForeArm  1.04241 -8.88835 -17.692
LeftHand  0.116261 2.53303 -5.84805
RightShoulder  14.208 25.8955 41.8334
RightArm  28.6222 16.5917 20.0484
RightForeArm  30.0637 32.0646 5.35293
RightHand  1.28085 4.94404 13.9918
LeftUpLeg  -111.248 19.7073 -82.4621
LeftLeg  122.43 6.1075 -9.31352
LeftFoot  17.9897 6.53248 -25.0444
LeftToes  1.03528e-008 1.55373e-010 -2.26046e-010
1340
root  6.4343 36.0654 -91.4466 143.699 -75.0313 -152.13
RightUpLeg  -8.74253 2.23045 12.3039
RightLeg  45.9965 -2.95693 -3.59672
RightFoot  -26.1309 0.0161259 1.48977
RightToes  -1.16417e-010 0 -3.6325e-017
Spine  18.4323 0.468297 -2.69916
Spine1  0.442529 -5.07736 8.62669
HEad  -16.9764 38.8576 -22.2022
LeftShoulder1  2.79108 -4.67294 -28.0707
LeftArm  58.1639 -39.1016 -81.6505
LeftForeArm  -1.59841 -9.51333 -17.5359
LeftHand  0.115575 2.56122 -5.80193
RightShoulder  14.7214 26.8033 42.0364
RightArm  29.5554 17.9489 20.4326
RightForeArm  28.8996 30.9368 5.14866
RightHand  1.35828 4.9591 14.8234
LeftUpLeg  -111.917 21.572 -82.5771
LeftLeg  122.638 6.8223 -10.2432
LeftFoot  16.5367 5.65401 -22.9301
LeftToes  1.03528e-008 1.55373e-010 -2.26046e-010
